<svg width="18" height="18" viewBox="0 0 18 18" fill="none" xmlns="http://www.w3.org/2000/svg">
<path d="M9.09775 9.63167C9.04105 9.62357 8.96815 9.62357 8.90335 9.63167C7.47775 9.58307 6.34375 8.41667 6.34375 6.98297C6.34375 5.51687 7.52635 4.32617 9.00055 4.32617C10.4666 4.32617 11.6573 5.51687 11.6573 6.98297C11.6492 8.41667 10.5233 9.58307 9.09775 9.63167Z" stroke="white" stroke-width="1.62" stroke-linecap="round" stroke-linejoin="round"/>
<path d="M14.4598 14.9777C13.018 16.298 11.1064 17.0999 9.00042 17.0999C6.89442 17.0999 4.98282 16.298 3.54102 14.9777C3.62202 14.2163 4.10802 13.4711 4.97472 12.8879C7.19412 11.4137 10.8229 11.4137 13.0261 12.8879C13.8928 13.4711 14.3788 14.2163 14.4598 14.9777Z" stroke="white" stroke-width="1.62" stroke-linecap="round" stroke-linejoin="round"/>
<path d="M9.00039 17.0999C13.4739 17.0999 17.1004 13.4734 17.1004 8.9999C17.1004 4.5264 13.4739 0.899902 9.00039 0.899902C4.52688 0.899902 0.900391 4.5264 0.900391 8.9999C0.900391 13.4734 4.52688 17.0999 9.00039 17.0999Z" stroke="white" stroke-width="1.62" stroke-linecap="round" stroke-linejoin="round"/>
</svg>
