<svg width="30" height="30" viewBox="0 0 30 30" fill="none" xmlns="http://www.w3.org/2000/svg">
<path d="M15.2136 15.1677C15.0728 15.1552 14.9266 15.1562 14.7898 15.1678C12.7172 15.0638 11.0798 13.3578 11.0798 11.265C11.0798 9.10027 12.8241 7.34497 14.9998 7.34497C17.1616 7.34497 18.9183 9.10075 18.9198 11.2622C18.9065 13.3618 17.2784 15.0619 15.2136 15.1677Z" stroke="white" stroke-width="2" stroke-linecap="round" stroke-linejoin="round"/>
<path d="M24.0249 25.6937C21.5851 27.7607 18.4442 29.0001 15.0001 29.0001C11.5561 29.0001 8.4152 27.7607 5.97537 25.6937C6.21962 24.7899 6.89177 23.8457 8.10094 23.0314C9.9576 21.7991 12.4603 21.1526 15.0114 21.1526C17.5636 21.1526 20.0578 21.7996 21.8981 23.0306C23.1081 23.8451 23.7806 24.7896 24.0249 25.6937Z" stroke="white" stroke-width="2" stroke-linecap="round" stroke-linejoin="round"/>
<path d="M29 15C29 22.732 22.732 29 15 29C7.26801 29 1 22.732 1 15C1 7.26801 7.26801 1 15 1C22.732 1 29 7.26801 29 15Z" stroke="white" stroke-width="2" stroke-linecap="round" stroke-linejoin="round"/>
</svg>
