<svg width="20" height="20" viewBox="0 0 20 20" fill="none" xmlns="http://www.w3.org/2000/svg">
<path d="M16.9746 14.431C16.9746 14.683 16.9186 14.942 16.7996 15.194C16.6806 15.446 16.5266 15.684 16.3236 15.908C15.9806 16.286 15.6026 16.559 15.1756 16.734C14.7556 16.909 14.3006 17 13.8106 17C13.0966 17 12.3336 16.832 11.5286 16.489C10.7236 16.146 9.91861 15.684 9.12061 15.103C8.31561 14.515 7.55261 13.864 6.82461 13.143C6.10361 12.415 5.45261 11.652 4.87161 10.854C4.29761 10.056 3.83561 9.258 3.49961 8.467C3.16361 7.669 2.99561 6.906 2.99561 6.178C2.99561 5.702 3.07961 5.247 3.24761 4.827C3.41561 4.4 3.68161 4.008 4.05261 3.658C4.50061 3.217 4.99061 3 5.50861 3C5.70461 3 5.90061 3.042 6.07561 3.126C6.25761 3.21 6.41861 3.336 6.54461 3.518L8.16861 5.807C8.29461 5.982 8.38561 6.143 8.44861 6.297C8.51161 6.444 8.54661 6.591 8.54661 6.724C8.54661 6.892 8.49761 7.06 8.39961 7.221C8.30861 7.382 8.17561 7.55 8.00761 7.718L7.47561 8.271C7.39861 8.348 7.36361 8.439 7.36361 8.551C7.36361 8.607 7.37061 8.656 7.38461 8.712C7.40561 8.768 7.42661 8.81 7.44061 8.852C7.56661 9.083 7.78361 9.384 8.09161 9.748C8.40661 10.112 8.74261 10.483 9.10661 10.854C9.48461 11.225 9.84861 11.568 10.2196 11.883C10.5836 12.191 10.8846 12.401 11.1226 12.527C11.1576 12.541 11.1996 12.562 11.2486 12.583C11.3046 12.604 11.3606 12.611 11.4236 12.611C11.5426 12.611 11.6336 12.569 11.7106 12.492L12.2426 11.967C12.4176 11.792 12.5856 11.659 12.7466 11.575C12.9076 11.477 13.0686 11.428 13.2436 11.428C13.3766 11.428 13.5166 11.456 13.6706 11.519C13.8246 11.582 13.9856 11.673 14.1606 11.792L16.4776 13.437C16.6596 13.563 16.7856 13.71 16.8626 13.885C16.9326 14.06 16.9746 14.235 16.9746 14.431Z" stroke="white" stroke-width="1.8" stroke-miterlimit="10"/>
</svg>
