<svg width="8" height="12" viewBox="0 0 8 12" fill="none" xmlns="http://www.w3.org/2000/svg">
<path d="M0.306019 11.736C-0.102006 11.384 -0.102007 10.8133 0.306019 10.4613L6.21639 5.36269C6.62441 5.01071 7.28595 5.01071 7.69398 5.36269C8.10201 5.71468 8.10201 6.28537 7.69398 6.63736L1.78361 11.736C1.37559 12.088 0.714045 12.088 0.306019 11.736Z" fill="black"/>
<path d="M0.306021 0.263991C0.714046 -0.087997 1.37559 -0.0879972 1.78361 0.263991L7.69398 5.36269C8.10201 5.71468 8.10201 6.28537 7.69398 6.63736C7.28596 6.98935 6.62442 6.98929 6.21639 6.63731L0.30602 1.53865C-0.102005 1.18667 -0.102005 0.61598 0.306021 0.263991Z" fill="black"/>
</svg>
