<svg width="48" height="20" viewBox="0 0 48 20" fill="none" xmlns="http://www.w3.org/2000/svg">
<path d="M7.23332 10.9583L5.59849 16.321L3.96371 10.9583H1.35791L0 19.7492H2.4996L3.18993 14.6516L4.76024 19.7492H6.43675L8.00706 14.6516L8.69741 19.7492H11.197L9.83911 10.9583H7.23332Z" fill="white"/>
<path d="M28.3871 16.1454L24.9848 10.9583H22.2424V19.7492H24.7572V14.4761L28.2013 19.7492H30.9019V10.9583H28.3871V16.1454Z" fill="white"/>
<path d="M32.5745 19.7492H38.1616V17.6392H35.1841V16.235H37.8809V14.3005H35.1841V13.0682H38.1616V10.9583H32.5745V19.7492Z" fill="white"/>
<path d="M44.8222 10.9583L43.2822 14.0498L41.6967 10.9583H38.6282L41.8446 16.3353V19.7492H44.4505V16.3353L47.6706 10.9583H44.8222Z" fill="white"/>
<path d="M16.5754 10.7146C13.8596 10.7146 11.6597 12.7923 11.6597 15.3573C11.6597 17.9222 13.8596 19.9999 16.5754 19.9999C19.2912 19.9999 21.4912 17.9222 21.4912 15.3573C21.4912 12.7959 19.2875 10.7146 16.5754 10.7146ZM16.5754 17.8971C15.0886 17.8971 13.8862 16.7615 13.8862 15.3573C13.8862 13.953 15.0886 12.8174 16.5754 12.8174C18.0623 12.8174 19.2647 13.953 19.2647 15.3573C19.2647 16.7615 18.0585 17.8971 16.5754 17.8971Z" fill="white"/>
<path d="M12.68 6.90671C12.7673 7.19333 12.9 7.47631 13.0707 7.75933C13.2452 8.04591 13.4842 8.30026 13.7876 8.53311C14.0911 8.76595 14.4742 8.94862 14.9255 9.09195C15.3769 9.23524 15.9269 9.30689 16.5755 9.30689C17.2241 9.30689 17.7741 9.23524 18.2255 9.09195C18.6768 8.94862 19.0561 8.76235 19.3634 8.53311C19.6706 8.30382 19.9095 8.04591 20.0803 7.75933C20.2547 7.47631 20.3837 7.18973 20.471 6.90671C20.5582 6.62373 20.6151 6.35506 20.6378 6.10786C20.6606 5.86071 20.6719 5.65649 20.6719 5.49889V0.265137H18.0662V5.45231C18.0662 5.58484 18.051 5.75324 18.0244 5.95382C17.9979 6.15444 17.9372 6.34791 17.8386 6.53057C17.7399 6.71329 17.592 6.87089 17.3948 6.99986C17.1938 7.12884 16.9245 7.19333 16.5755 7.19333C16.2303 7.19333 15.9572 7.12884 15.7562 6.99986C15.5552 6.87089 15.4072 6.71329 15.3124 6.53057C15.2138 6.34791 15.1531 6.15444 15.1266 5.95382C15.1 5.75324 15.0848 5.58484 15.0848 5.45231V0.265137H12.479V5.50249C12.479 5.66009 12.4904 5.86426 12.5132 6.11146C12.5359 6.35862 12.589 6.62373 12.68 6.90671Z" fill="white"/>
<path d="M24.8595 0.265137H22.2537V9.05613H24.8595V0.265137Z" fill="white"/>
<path d="M33.3976 6.1544C33.1586 6.38724 32.8514 6.60578 32.4797 6.80635C32.108 7.00698 31.6755 7.10729 31.19 7.10729C30.8183 7.10729 30.4845 7.0464 30.1925 6.92458C29.9004 6.8028 29.6501 6.6344 29.4415 6.42307C29.2329 6.20813 29.0773 5.95738 28.9711 5.6708C28.8649 5.38062 28.8118 5.06893 28.8118 4.73582C28.8118 4.37757 28.8687 4.04083 28.9863 3.73275C29.1001 3.42467 29.2594 3.156 29.4642 2.93032C29.6691 2.70464 29.9156 2.5291 30.2076 2.40372C30.4997 2.27834 30.8297 2.21386 31.19 2.21386C31.4366 2.21386 31.6718 2.24252 31.888 2.30342C32.1042 2.36073 32.3052 2.44312 32.4873 2.54343C32.6693 2.64373 32.8362 2.75837 32.9842 2.88375C33.1359 3.00913 33.2724 3.13809 33.3976 3.27422V0.716458C32.9993 0.465693 32.5783 0.28658 32.1345 0.175528C31.6907 0.0680591 31.2621 0.0107422 30.8449 0.0107422C30.2152 0.0107422 29.6159 0.114629 29.0432 0.325985C28.4705 0.53376 27.9698 0.838253 27.5336 1.23589C27.0974 1.63352 26.756 2.12072 26.5019 2.69389C26.2477 3.26706 26.1226 3.92262 26.1226 4.66058C26.1226 5.36271 26.2402 6.00395 26.4753 6.57711C26.7105 7.15027 27.0405 7.63747 27.4653 8.03867C27.8901 8.43991 28.3946 8.75155 28.9749 8.97364C29.5553 9.19578 30.1925 9.3068 30.8828 9.3068C31.2811 9.3068 31.6945 9.26382 32.1194 9.18142C32.5442 9.09906 32.969 8.92351 33.3976 8.65484V6.1544Z" fill="white"/>
<path d="M37.3045 5.2768L40.0052 9.05613H43.2634L39.6335 4.52093L43.1723 0.265137H40.1113L37.3045 3.95491V0.265137H34.6987V9.05613H37.3045V5.2768Z" fill="white"/>
<path d="M6.28126 9.28533C6.85401 9.28533 7.40018 9.18862 7.90846 9.02022L7.91222 9.02382L12.517 10.7218L9.91876 7.76284V7.75929C10.7115 6.93533 11.197 5.84631 11.197 4.64627C11.197 2.07774 8.99707 0 6.28126 0C3.56544 0 1.36548 2.07774 1.36548 4.64267C1.36548 7.204 3.56923 9.28533 6.28126 9.28533ZM6.28126 2.10281C7.76813 2.10281 8.97048 3.2384 8.97048 4.64267C8.97048 5.19076 8.78465 5.69587 8.47363 6.10782L7.29778 4.76804L5.49232 6.00751L6.42916 7.17533C6.37985 7.17893 6.33053 7.18253 6.27745 7.18253C4.79057 7.18253 3.58819 6.04693 3.58819 4.64267C3.59199 3.2384 4.79815 2.10281 6.28126 2.10281Z" fill="#FFDE17"/>
</svg>
